HIERARCHY
ROOT Pelvis
{
	OFFSET 0.000000 0.000000 0.000000
	CHANNELS 6 Xposition Yposition Zposition Zrotation Yrotation Xrotation 
	JOINT Left_hip
	{
		OFFSET 0.067986 -0.089946 -0.007639
		CHANNELS 3 Zrotation Yrotation Xrotation
		JOINT Left_knee
		{
			OFFSET 0.036308 -0.388288 -0.004016
			CHANNELS 3 Zrotation Yrotation Xrotation
			JOINT Left_ankle
			{
				OFFSET -0.012264 -0.413250 -0.042878
				CHANNELS 3 Zrotation Yrotation Xrotation
				JOINT Left_foot
				{
					OFFSET 0.024043 -0.058563 0.118570
					CHANNELS 3 Zrotation Yrotation Xrotation
					End Site
					{
						OFFSET 0.000000 0.000000 0.000000
					}
				}
			}
		}
	}
	JOINT Right_hip
	{
		OFFSET -0.065648 -0.089374 -0.003858
		CHANNELS 3 Zrotation Yrotation Xrotation
		JOINT Right_knee
		{
			OFFSET -0.042132 -0.395021 -0.006361
			CHANNELS 3 Zrotation Yrotation Xrotation
			JOINT Right_ankle
			{
				OFFSET 0.014805 -0.413264 -0.041054
				CHANNELS 3 Zrotation Yrotation Xrotation
				JOINT Right_foot
				{
					OFFSET -0.021758 -0.049013 0.121832
					CHANNELS 3 Zrotation Yrotation Xrotation
					End Site
					{
						OFFSET 0.000000 0.000000 0.000000
					}
				}
			}
		}
	}
	JOINT Spine1
	{
		OFFSET -0.002755 0.104406 -0.022277
		CHANNELS 3 Zrotation Yrotation Xrotation
		JOINT Spine2
		{
			OFFSET 0.004136 0.129393 -0.002186
			CHANNELS 3 Zrotation Yrotation Xrotation
			JOINT Spine3
			{
				OFFSET 0.001906 0.049304 0.025578
				CHANNELS 3 Zrotation Yrotation Xrotation
				JOINT Neck
				{
					OFFSET -0.004620 0.210958 -0.044063
					CHANNELS 3 Zrotation Yrotation Xrotation
					JOINT Head
					{
						OFFSET 0.003833 0.067393 0.052435
						CHANNELS 3 Zrotation Yrotation Xrotation
						End Site
						{
							OFFSET 0.000000 0.000000 0.000000
						}
					}
				}
				JOINT Left_collar
				{
					OFFSET 0.070771 0.116689 -0.037192
					CHANNELS 3 Zrotation Yrotation Xrotation
					JOINT Left_shoulder
					{
						OFFSET 0.080652 0.031596 -0.005617
						CHANNELS 3 Zrotation Yrotation Xrotation
						JOINT Left_elbow
						{
							OFFSET 0.262654 -0.015020 -0.027939
							CHANNELS 3 Zrotation Yrotation Xrotation
							JOINT Left_wrist
							{
								OFFSET 0.250438 0.010062 -0.000990
								CHANNELS 3 Zrotation Yrotation Xrotation
								JOINT Left_palm
								{
									OFFSET 0.081198 -0.010037 -0.013706
									CHANNELS 3 Zrotation Yrotation Xrotation
									End Site
									{
										OFFSET 0.000000 0.000000 0.000000
									}
								}
							}
						}
					}
				}
				JOINT Right_collar
				{
					OFFSET -0.072972 0.115556 -0.040762
					CHANNELS 3 Zrotation Yrotation Xrotation
					JOINT Right_shoulder
					{
						OFFSET -0.082917 0.031841 -0.006673
						CHANNELS 3 Zrotation Yrotation Xrotation
						JOINT Right_elbow
						{
							OFFSET -0.252882 -0.013790 -0.020410
							CHANNELS 3 Zrotation Yrotation Xrotation
							JOINT Right_wrist
							{
								OFFSET -0.255570 0.009163 -0.005138
								CHANNELS 3 Zrotation Yrotation Xrotation
								JOINT Right_palm
								{
									OFFSET -0.080804 -0.007282 -0.010415
									CHANNELS 3 Zrotation Yrotation Xrotation
									End Site
									{
										OFFSET 0.000000 0.000000 0.000000
									}
								}
							}
						}
					}
				}
			}
		}
	}
}
MOTION
Frames: 9
Frame Time: 0.100000
0.000000 0.000000 0.000000 174.371732 24.567003 -13.090856 7.013344 6.616163 3.389704 -2.457562 -16.061107 -2.656399 -4.050455 15.919714 -4.418314 2.208995 -0.917557 -4.670113 -4.340338 -4.792615 2.085195 4.166545 13.202911 1.118657 4.807316 -13.926590 -6.764929 1.925522 5.260459 5.355155 0.972933 1.858522 1.535546 1.411904 -2.948019 2.286745 1.201513 1.283908 0.420947 -5.396440 -0.101089 8.556266 5.352991 -0.588562 -11.464339 -3.407073 2.660223 -8.962542 3.089517 -2.355843 -13.848529 0.694551 -5.549781 -7.343400 2.909817 -6.428446 25.282051 -6.759086 -8.874354 -9.601724 3.995091 -0.863514 -3.008030 -0.912737 -7.029035 -17.948722 -1.854676 8.149142 -2.114546 -1.061131 6.240403 24.594863 11.795519 8.345458 -7.732626 
-0.000377 -0.000005 0.000158 174.380059 24.591212 -13.112664 7.000950 6.614680 3.426012 -2.498432 -16.117183 -2.623155 -3.969305 15.937576 -4.436886 2.138690 -0.892794 -4.691578 -4.376357 -4.811668 2.111443 4.190339 13.240848 1.185691 4.747297 -13.978866 -6.805360 1.998573 5.267653 5.388329 1.008704 1.861732 1.631178 1.397259 -2.930431 2.178768 1.194104 1.291303 0.489535 -5.425964 -0.163102 8.407185 5.322205 -0.452694 -11.542237 -3.474192 2.682912 -8.983899 2.942507 -2.309282 -13.750349 0.613016 -5.711500 -7.760103 3.365834 -6.181261 24.726866 -6.929175 -8.961542 -9.587400 4.015802 -0.940196 -3.062257 -0.934594 -7.081613 -17.944537 -1.795416 8.184959 -2.257698 -1.461298 6.115445 24.567728 11.977826 8.439939 -7.838584 
-0.000712 -0.000016 0.000371 174.371255 24.586555 -13.083985 6.995616 6.606453 3.427341 -2.496682 -16.101984 -2.637053 -3.955927 15.920076 -4.454824 2.109264 -0.871437 -4.677259 -4.382735 -4.810744 2.123931 4.178330 13.222869 1.141061 4.740516 -13.950748 -6.802193 2.017192 5.253622 5.408642 1.014654 1.866830 1.615924 1.410665 -2.921595 2.241183 1.200832 1.305465 0.472746 -5.378875 -0.233022 8.374685 5.356765 -0.522706 -11.624675 -3.542563 2.718838 -8.974633 2.807194 -2.237145 -13.726388 0.705148 -5.791250 -7.861222 3.460483 -6.204679 24.695887 -6.930037 -8.958281 -9.585643 4.061543 -0.929937 -3.042833 -0.891254 -7.099852 -17.983145 -1.872227 8.174117 -2.330430 -1.555615 6.152614 24.629816 11.970212 8.432731 -7.838979 
-0.000992 -0.000054 0.000671 174.384652 24.532983 -13.051828 6.988616 6.610512 3.458825 -2.487544 -16.048717 -2.667422 -3.926710 15.880044 -4.479718 2.097143 -0.817589 -4.636271 -4.400586 -4.793281 2.129223 4.182221 13.183176 1.116225 4.681192 -13.861730 -6.795324 2.142774 5.191142 5.470210 1.017996 1.891342 1.561189 1.448341 -2.885435 2.396873 1.193875 1.323159 0.423101 -5.325789 -0.152183 8.437899 5.272113 -0.518455 -11.627471 -3.684722 2.827419 -8.972288 2.662371 -2.252384 -13.633626 0.841334 -6.030028 -7.955407 3.642017 -6.239929 24.623514 -6.984501 -8.972097 -9.648979 4.240846 -0.996499 -3.028999 -0.803224 -7.034775 -17.959554 -2.018353 8.339367 -2.592886 -1.809270 6.201746 24.472477 12.037041 8.435221 -7.845467 
-0.001294 -0.000091 0.000964 174.398662 24.597365 -13.005357 6.952313 6.554796 3.416008 -2.498585 -15.875991 -2.635712 -3.997505 15.700677 -4.537938 2.302788 -0.733792 -4.627507 -4.449553 -4.759358 2.108577 4.192429 12.930187 1.143665 4.650010 -13.656327 -6.854896 2.114947 5.096646 5.550367 1.064130 1.901590 1.487389 1.483540 -2.859470 2.633251 1.148410 1.299803 0.255019 -5.181022 -0.022912 8.486195 5.054711 -0.570081 -11.414199 -4.199493 3.178850 -8.948357 2.231446 -2.269542 -13.329242 1.673507 -7.415234 -7.774667 3.523333 -6.925866 24.786692 -7.035065 -8.914650 -9.568808 4.735048 -1.242840 -3.082549 -0.538705 -7.047611 -17.816609 -2.734230 9.554048 -3.280250 -1.656205 6.638486 24.002194 11.998959 8.346669 -7.620363 
-0.001563 -0.000243 0.001653 174.514028 24.496337 -12.902288 6.903722 6.443076 3.462175 -2.503718 -15.303444 -2.689838 -3.892344 15.164081 -4.574295 2.399843 -0.210230 -4.514190 -4.544244 -4.585208 2.064478 4.218279 12.384254 1.188767 4.484582 -13.095216 -7.003367 2.313986 4.784505 6.037020 1.067287 1.958193 1.271397 1.621927 -2.769406 3.045828 1.053895 1.279989 0.011016 -4.906228 0.107535 8.399779 4.563404 -0.749345 -11.101169 -5.440751 4.066631 -8.974756 0.841423 -2.342282 -12.620839 4.507370 -11.741468 -9.829234 4.954574 -7.619533 22.653873 -7.739430 -9.077839 -9.585556 6.050489 -1.996444 -3.299525 0.335393 -7.134695 -17.504722 -5.691485 14.618837 -6.585154 -4.028727 7.601501 21.613893 12.785393 8.313614 -7.431943 
-0.001121 -0.000184 0.001824 174.659549 24.395440 -12.773483 6.862025 6.178067 3.363735 -2.559569 -14.207808 -2.616686 -3.590256 14.079630 -4.589682 2.643064 0.901422 -4.382941 -4.647533 -4.223389 1.882117 4.268420 11.267750 1.354711 4.254718 -12.035884 -7.280445 2.309223 4.083083 6.672762 1.019829 2.034470 1.114443 1.875679 -2.631526 3.673500 0.893223 1.177278 -0.412066 -4.290400 0.507947 7.955006 3.693368 -1.060985 -10.693506 -7.559125 5.744113 -9.028865 -2.469613 -2.875018 -10.921279 10.454304 -19.695844 -13.693312 6.782024 -7.900185 18.726223 -9.322551 -9.505920 -10.061476 8.353778 -3.309080 -3.746508 3.282482 -6.616687 -16.141354 -11.977432 24.450963 -13.729254 -7.566284 8.015548 14.755481 14.413619 8.333084 -7.066967 
0.000442 0.000134 0.001498 174.788518 24.218434 -12.618199 6.903986 5.821055 3.117351 -2.646384 -12.582615 -2.510979 -3.232246 12.480895 -4.313080 2.817243 2.414290 -5.017710 -4.690925 -3.815585 1.555641 4.262354 9.637996 1.556250 4.498491 -10.453261 -7.581813 1.058215 3.287593 6.945712 1.094958 2.132262 1.000688 1.986541 -2.369794 4.356830 0.582343 1.054759 -0.888429 -3.251402 1.234624 7.408358 2.852958 -1.524449 -10.316366 -9.904479 7.713065 -9.026442 -9.013506 -4.117384 -8.285507 19.357285 -29.226663 -17.325658 7.671603 -8.587692 16.582362 -10.977288 -9.865650 -10.530382 10.976047 -4.703140 -4.051291 10.300419 -5.027977 -13.334535 -20.613240 33.876733 -20.246184 -8.563828 8.604513 8.691807 15.556376 8.493567 -6.310135 
0.003627 0.000624 0.001550 174.675929 24.569465 -12.528058 7.097331 5.451798 2.662657 -2.654354 -11.299214 -2.373974 -3.144721 10.789838 -3.994833 3.072795 3.720629 -6.055292 -4.578756 -3.654450 1.370514 4.289850 7.810213 1.561651 4.482024 -9.082066 -7.825649 0.181366 2.887322 7.481882 1.157504 2.387746 0.906326 2.324514 -2.000186 5.621120 0.455059 0.993446 -1.837231 -2.326852 1.668802 6.147319 1.876033 -2.376128 -9.887668 -13.192693 8.987411 -8.579533 -16.971199 -5.464781 -4.559538 28.154340 -39.064795 -19.963703 8.042270 -9.429691 16.871983 -12.647082 -10.651172 -11.127628 14.909994 -5.473639 -3.617785 18.176142 -4.794882 -9.247864 -26.227536 39.643185 -21.769638 -7.388848 9.515803 7.492663 16.500332 9.526175 -5.960129 
